<svg xmlns="http://www.w3.org/2000/svg" style="display:none;">

  <symbol id="trash" viewBox="0 0 24 24" >
    <path stroke-linecap="round" stroke-linejoin="round"
          d="M14.74 9l-.346 9m-4.788 0L9.26 9m9.968-3.21c.342.052.682.107 1.022.166m-1.022-.165L18.16 19.673a2.25 2.25 0 01-2.244 2.077H8.084a2.25 2.25 0 01-2.244-2.077L4.772 5.79m14.456 0a48.108 48.108 0 00-3.478-.397m-12 .562c.34-.059.68-.114 1.022-.165m0 0a48.11 48.11 0 013.478-.397m7.5 0v-.916c0-1.18-.91-2.164-2.09-2.201a51.964 51.964 0 00-3.32 0c-1.18.037-2.09 1.022-2.09 2.201v.916m7.5 0a48.667 48.667 0 00-7.5 0" />
  </symbol>

  <symbol id="trash-old" viewBox="0 0 16 16">
    <path d="M5.5 5.5A.5.5 0 0 1 6 6v6a.5.5 0 0 1-1 0V6a.5.5 0 0 1 .5-.5Zm2.5 0a.5.5 0 0 1 .5.5v6a.5.5 0 0 1-1 0V6a.5.5 0 0 1 .5-.5Zm3 .5a.5.5 0 0 0-1 0v6a.5.5 0 0 0 1 0V6Z"/>
    <path d="M14.5 3a1 1 0 0 1-1 1H13v9a2 2 0 0 1-2 2H5a2 2 0 0 1-2-2V4h-.5a1 1 0 0 1-1-1V2a1 1 0 0 1 1-1H6a1 1 0 0 1 1-1h2a1 1 0 0 1 1 1h3.5a1 1 0 0 1 1 1v1ZM4.118 4 4 4.059V13a1 1 0 0 0 1 1h6a1 1 0 0 0 1-1V4.059L11.882 4H4.118ZM2.5 3h11V2h-11v1Z"/>
  </symbol>

  <symbol id="plus" viewBox="0 0 16 16" fill="currentColor">
    <path fill-rule="evenodd" d="M8 2a.5.5 0 0 1 .5.5v5h5a.5.5 0 0 1 0 1h-5v5a.5.5 0 0 1-1 0v-5h-5a.5.5 0 0 1 0-1h5v-5A.5.5 0 0 1 8 2Z"/>
  </symbol>

  <symbol id="minus" viewBox="0 0 16 16" fill="currentColor">
    <path fill-rule="evenodd" d="M2 8a.5.5 0 0 1 .5-.5h11a.5.5 0 0 1 0 1h-11A.5.5 0 0 1 2 8Z"/>
  </symbol>

  <symbol id="x" viewBox="0 0 16 16" fill="currentColor">
    <path d="M2.146 2.854a.5.5 0 1 1 .708-.708L8 7.293l5.146-5.147a.5.5 0 0 1 .708.708L8.707 8l5.147 5.146a.5.5 0 0 1-.708.708L8 8.707l-5.146 5.147a.5.5 0 0 1-.708-.708L7.293 8 2.146 2.854Z"/>
  </symbol>

  <symbol id="drag-handle" viewBox="0 0 16 16" fill="currentColor">
    <path d="M2 8a1 1 0 1 1 0 2 1 1 0 0 1 0-2zm0-3a1 1 0 1 1 0 2 1 1 0 0 1 0-2zm3 3a1 1 0 1 1 0 2 1 1 0 0 1 0-2zm0-3a1 1 0 1 1 0 2 1 1 0 0 1 0-2zm3 3a1 1 0 1 1 0 2 1 1 0 0 1 0-2zm0-3a1 1 0 1 1 0 2 1 1 0 0 1 0-2zm3 3a1 1 0 1 1 0 2 1 1 0 0 1 0-2zm0-3a1 1 0 1 1 0 2 1 1 0 0 1 0-2zm3 3a1 1 0 1 1 0 2 1 1 0 0 1 0-2zm0-3a1 1 0 1 1 0 2 1 1 0 0 1 0-2z"/>
  </symbol>

  <symbol id="list" viewBox="0 0 16 16" fill="currentColor">
    <path fill-rule="evenodd" d="M2.5 12a.5.5 0 0 1 .5-.5h10a.5.5 0 0 1 0 1H3a.5.5 0 0 1-.5-.5zm0-4a.5.5 0 0 1 .5-.5h10a.5.5 0 0 1 0 1H3a.5.5 0 0 1-.5-.5zm0-4a.5.5 0 0 1 .5-.5h10a.5.5 0 0 1 0 1H3a.5.5 0 0 1-.5-.5z"/>
  </symbol>

  <symbol id="eye" viewBox="0 0 16 16" fill="currentColor">
    <path d="M16 8s-3-5.5-8-5.5S0 8 0 8s3 5.5 8 5.5S16 8 16 8zM1.173 8a13.133 13.133 0 0 1 1.66-2.043C4.12 4.668 5.88 3.5 8 3.5c2.12 0 3.879 1.168 5.168 2.457A13.133 13.133 0 0 1 14.828 8c-.058.087-.122.183-.195.288-.335.48-.83 1.12-1.465 1.755C11.879 11.332 10.119 12.5 8 12.5c-2.12 0-3.879-1.168-5.168-2.457A13.134 13.134 0 0 1 1.172 8z"/>
    <path d="M8 5.5a2.5 2.5 0 1 0 0 5 2.5 2.5 0 0 0 0-5zM4.5 8a3.5 3.5 0 1 1 7 0 3.5 3.5 0 0 1-7 0z"/>
    <!-- "data:image/svg+xml,%3Csvg id='eye-slash' viewBox='0 0 16 16' fill='%23121212' stroke='%23121212' stroke-width='0.5' stroke-linejoin='round' stroke-linecap='round' xmlns='http://www.w3.org/2000/svg'%3E%3Cpath d='M13.359 11.238C15.06 9.72 16 8 16 8s-3-5.5-8-5.5a7.028 7.028 0 0 0-2.79.588l.77.771A5.944 5.944 0 0 1 8 3.5c2.12 0 3.879 1.168 5.168 2.457A13.134 13.134 0 0 1 14.828 8c-.058.087-.122.183-.195.288-.335.48-.83 1.12-1.465 1.755-.165.165-.337.328-.517.486l.708.709z'/%3E%3Cpath d='M11.297 9.176a3.5 3.5 0 0 0-4.474-4.474l.823.823a2.5 2.5 0 0 1 2.829 2.829l.822.822zm-2.943 1.299.822.822a3.5 3.5 0 0 1-4.474-4.474l.823.823a2.5 2.5 0 0 0 2.829 2.829z'/%3E%3Cpath d='M3.35 5.47c-.18.16-.353.322-.518.487A13.134 13.134 0 0 0 1.172 8l.195.288c.335.48.83 1.12 1.465 1.755C4.121 11.332 5.881 12.5 8 12.5c.716 0 1.39-.133 2.02-.36l.77.772A7.029 7.029 0 0 1 8 13.5C3 13.5 0 8 0 8s.939-1.721 2.641-3.238l.708.709zm10.296 8.884-12-12 .708-.708 12 12-.708.708z'/%3E%3C/svg%3E" -->
  </symbol>

  <symbol id="eye-slash" viewBox="0 0 16 16" fill="currentColor">
    <path d="M13.359 11.238C15.06 9.72 16 8 16 8s-3-5.5-8-5.5a7.028 7.028 0 0 0-2.79.588l.77.771A5.944 5.944 0 0 1 8 3.5c2.12 0 3.879 1.168 5.168 2.457A13.134 13.134 0 0 1 14.828 8c-.058.087-.122.183-.195.288-.335.48-.83 1.12-1.465 1.755-.165.165-.337.328-.517.486l.708.709z"/>
    <path d="M11.297 9.176a3.5 3.5 0 0 0-4.474-4.474l.823.823a2.5 2.5 0 0 1 2.829 2.829l.822.822zm-2.943 1.299.822.822a3.5 3.5 0 0 1-4.474-4.474l.823.823a2.5 2.5 0 0 0 2.829 2.829z"/>
    <path d="M3.35 5.47c-.18.16-.353.322-.518.487A13.134 13.134 0 0 0 1.172 8l.195.288c.335.48.83 1.12 1.465 1.755C4.121 11.332 5.881 12.5 8 12.5c.716 0 1.39-.133 2.02-.36l.77.772A7.029 7.029 0 0 1 8 13.5C3 13.5 0 8 0 8s.939-1.721 2.641-3.238l.708.709zm10.296 8.884-12-12 .708-.708 12 12-.708.708z"/>
    <!-- "data:image/svg+xml,%3Csvg id='eye' viewBox='0 0 16 16' fill='%23030303' stroke='%23030303' stroke-width='0.5' stroke-linejoin='round' stroke-linecap='round' xmlns='http://www.w3.org/2000/svg'%3E%3Cpath d='M16 8s-3-5.5-8-5.5S0 8 0 8s3 5.5 8 5.5S16 8 16 8zM1.173 8a13.133 13.133 0 0 1 1.66-2.043C4.12 4.668 5.88 3.5 8 3.5c2.12 0 3.879 1.168 5.168 2.457A13.133 13.133 0 0 1 14.828 8c-.058.087-.122.183-.195.288-.335.48-.83 1.12-1.465 1.755C11.879 11.332 10.119 12.5 8 12.5c-2.12 0-3.879-1.168-5.168-2.457A13.134 13.134 0 0 1 1.172 8z'/%3E%3Cpath d='M8 5.5a2.5 2.5 0 1 0 0 5 2.5 2.5 0 0 0 0-5zM4.5 8a3.5 3.5 0 1 1 7 0 3.5 3.5 0 0 1-7 0z'/%3E%3C/svg%3E" -->
  </symbol>

  <symbol id="loadbar-doc" viewBox="0 0 24 24" fill="none">
    <path fill-rule="evenodd" clip-rule="evenodd"
          d="M17 5H7C6.44772 5 6 5.44772 6 6V18C6 18.5523 6.44772 19 7 19H17C17.5523 19 18 18.5523 18 18V6C18 5.44772 17.5523 5 17 5ZM7 3C5.34315 3 4 4.34315 4 6V18C4 19.6569 5.34315 21 7 21H17C18.6569 21 20 19.6569 20 18V6C20 4.34315 18.6569 3 17 3H7Z"
          fill="currentColor"/>
    <path d="M8 7H16V9H8V7Z" fill="currentColor"/>
    <path d="M8 11H16V13H8V11Z" fill="currentColor"/>
    <path d="M8 15H13V17H8V15Z" fill="currentColor"/>
  </symbol>

  <symbol id="cloud" viewBox="0 0 24 24" fill="none">
    <path fill-rule="evenodd" clip-rule="evenodd"
          d="M14.738 19.9964C14.8186 19.9988 14.8994 20 14.9806 20C19.3989 20 22.9806 16.4183 22.9806 12C22.9806 7.58172 19.3989 4 14.9806 4C12.4542 4 10.2013 5.17108 8.73522 7H7.51941C3.92956 7 1.01941 9.91015 1.01941 13.5C1.01941 17.0899 3.92956 20 7.51941 20H14.5194C14.5926 20 14.6654 19.9988 14.738 19.9964ZM16.6913 17.721C19.0415 16.9522 20.9806 14.6815 20.9806 12C20.9806 8.68629 18.2943 6 14.9806 6C11.6669 6 8.98059 8.68629 8.98059 12H6.98059C6.98059 10.9391 7.1871 9.92643 7.56211 9H7.51941C5.03413 9 3.01941 11.0147 3.01941 13.5C3.01941 15.9853 5.03413 18 7.51941 18H14.5194C15.0691 18 15.9041 17.9014 16.6913 17.721Z"
          fill="currentColor"/>
  </symbol>

  <symbol id="export" viewBox="0 0 24 24" fill="none">
    <path d="M16.9498 5.96781L15.5356 7.38203L13 4.84646V17.0421H11V4.84653L8.46451 7.38203L7.05029 5.96781L12 1.01807L16.9498 5.96781Z" fill="currentColor" /><path d="M5 20.9819V10.9819H9V8.98193H3V22.9819H21V8.98193H15V10.9819H19V20.9819H5Z"
          fill="currentColor"/>
  </symbol>

  <symbol id="ghost" viewBox="0 0 24 24" fill="none">
    <path d="M10.9759 9C10.9759 9.55228 10.5282 10 9.97589 10C9.42361 10 8.97589 9.55228 8.97589 9C8.97589 8.44771 9.42361 8 9.97589 8C10.5282 8 10.9759 8.44771 10.9759 9Z" fill="currentColor" />
    <path d="M13.9712 10C14.5235 10 14.9712 9.55228 14.9712 9C14.9712 8.44771 14.5235 8 13.9712 8C13.4189 8 12.9712 8.44771 12.9712 9C12.9712 9.55228 13.4189 10 13.9712 10Z" fill="currentColor" />
    <path fill-rule="evenodd" clip-rule="evenodd" d="M19 20.9999V10C19 6.13401 15.866 3 12 3C8.13401 3 5 6.13401 5 10V21L7.82846 21L9.24264 19.5858L10.6569 21L13.3433 21L14.7574 19.5858L16.1717 21L19 20.9999ZM17 10C17 7.23858 14.7614 5 12 5C9.23858 5 7 7.23858 7 10V19L9.24264 16.7573L12 19.5147L14.7574 16.7573L17 18.9999V10Z" fill="currentColor" />
  </symbol>

  <symbol id="moon" viewBox="0 0 24 24" fill="none" stroke-linecap="round" stroke-linejoin="round">
    <path fill-rule="evenodd" clip-rule="evenodd" d="M12.2256 2.00253C9.59172 1.94346 6.93894 2.9189 4.92893 4.92891C1.02369 8.83415 1.02369 15.1658 4.92893 19.071C8.83418 22.9763 15.1658 22.9763 19.0711 19.071C21.0811 17.061 22.0565 14.4082 21.9975 11.7743C21.9796 10.9772 21.8669 10.1818 21.6595 9.40643C21.0933 9.9488 20.5078 10.4276 19.9163 10.8425C18.5649 11.7906 17.1826 12.4053 15.9301 12.6837C14.0241 13.1072 12.7156 12.7156 12 12C11.2844 11.2844 10.8928 9.97588 11.3163 8.0699C11.5947 6.81738 12.2094 5.43511 13.1575 4.08368C13.5724 3.49221 14.0512 2.90664 14.5935 2.34046C13.8182 2.13305 13.0228 2.02041 12.2256 2.00253ZM17.6569 17.6568C18.9081 16.4056 19.6582 14.8431 19.9072 13.2186C16.3611 15.2643 12.638 15.4664 10.5858 13.4142C8.53361 11.362 8.73568 7.63895 10.7814 4.09281C9.1569 4.34184 7.59434 5.09193 6.34315 6.34313C3.21895 9.46732 3.21895 14.5326 6.34315 17.6568C9.46734 20.781 14.5327 20.781 17.6569 17.6568Z" fill="currentColor" />
  </symbol>

  <symbol id="eye2" viewBox="0 0 24 24" fill="none" stroke-linecap="round" stroke-linejoin="round">
    <path fill-rule="evenodd" clip-rule="evenodd" d="M16 12C16 14.2091 14.2091 16 12 16C9.79086 16 8 14.2091 8 12C8 9.79086 9.79086 8 12 8C14.2091 8 16 9.79086 16 12ZM14 12C14 13.1046 13.1046 14 12 14C10.8954 14 10 13.1046 10 12C10 10.8954 10.8954 10 12 10C13.1046 10 14 10.8954 14 12Z" fill="currentColor" /><path fill-rule="evenodd" clip-rule="evenodd" d="M12 3C17.5915 3 22.2898 6.82432 23.6219 12C22.2898 17.1757 17.5915 21 12 21C6.40848 21 1.71018 17.1757 0.378052 12C1.71018 6.82432 6.40848 3 12 3ZM12 19C7.52443 19 3.73132 16.0581 2.45723 12C3.73132 7.94186 7.52443 5 12 5C16.4756 5 20.2687 7.94186 21.5428 12C20.2687 16.0581 16.4756 19 12 19Z" fill="currentColor" />
  </symbol>

  <symbol id="comment" viewBox="0 0 24 24" fill="none" stroke-linecap="round" stroke-linejoin="round">
    <path d="M17 9H7V7H17V9Z" fill="currentColor" />
    <path d="M7 13H17V11H7V13Z" fill="currentColor" />
    <path fill-rule="evenodd" clip-rule="evenodd" d="M2 18V2H22V18H16V22H14C11.7909 22 10 20.2091 10 18H2ZM12 16V18C12 19.1046 12.8954 20 14 20V16H20V4H4V16H12Z" fill="currentColor" />
  </symbol>

  <symbol id="file-arrow-up" viewBox="0 0 16 16">
    <path d="M12 0H4a2 2 0 0 0-2 2v12a2 2 0 0 0 2 2h8a2 2 0 0 0 2-2V2a2 2 0 0 0-2-2zM7.5 6.707 6.354 7.854a.5.5 0 1 1-.708-.708l2-2a.5.5 0 0 1 .708 0l2 2a.5.5 0 0 1-.708.708L8.5 6.707V10.5a.5.5 0 0 1-1 0V6.707z"/>
  </symbol>

  <symbol id="file-arrow-up-earmark" viewBox="0 0 16 16">
    <path d="M12 0H4a2 2 0 0 0-2 2v12a2 2 0 0 0 2 2h8a2 2 0 0 0 2-2V2a2 2 0 0 0-2-2zM7.5 6.707 6.354 7.854a.5.5 0 1 1-.708-.708l2-2a.5.5 0 0 1 .708 0l2 2a.5.5 0 0 1-.708.708L8.5 6.707V10.5a.5.5 0 0 1-1 0V6.707z"/>
  </symbol>

</svg>
